PathFileType	4	(X/Y/Z)	c:\Git\powerlifing_model_clean\simulations\HC835B\Session1\HC835B_OGR_0002\marker_experimental.trc
DataRate	CameraRate	NumFrames	NumMarkers	Units	OrigDataRate	OrigDataStartFrame	OrigNumFrames
240.000000	240.000000	4	38	mm	240.000000	190	218
Frame#	Time	RPSI			LPSI			RASI			LASI			RTH1			RTH2			RTH3			RTH4			RSK1			RSK2			RSK3			RSK4			RCAL1			RCAL2			RCAL3			RST			RPT			RTN			RFMB			RSMB			RVMB			RFMH			RSMH			RVMH			RPM			LTH1			LTH2			LTH3			LTH4			LSK1			LSK2			LSK3			LSK4			LCAL1			LCAL2			LCAL3			LFMH			LVMH			
		X1	Y1	Z1	X2	Y2	Z2	X3	Y3	Z3	X4	Y4	Z4	X5	Y5	Z5	X6	Y6	Z6	X7	Y7	Z7	X8	Y8	Z8	X9	Y9	Z9	X10	Y10	Z10	X11	Y11	Z11	X12	Y12	Z12	X13	Y13	Z13	X14	Y14	Z14	X15	Y15	Z15	X16	Y16	Z16	X17	Y17	Z17	X18	Y18	Z18	X19	Y19	Z19	X20	Y20	Z20	X21	Y21	Z21	X22	Y22	Z22	X23	Y23	Z23	X24	Y24	Z24	X25	Y25	Z25	X26	Y26	Z26	X27	Y27	Z27	X28	Y28	Z28	X29	Y29	Z29	X30	Y30	Z30	X31	Y31	Z31	X32	Y32	Z32	X33	Y33	Z33	X34	Y34	Z34	X35	Y35	Z35	X36	Y36	Z36	X37	Y37	Z37	X38	Y38	Z38	

191	0.7916666666666666	533.4772338867189	1197.484497070313	-2267.10302734375	421.5262756347657	1195.736938476563	-2277.716796875	608.2931518554689	1134.824096679688	-2458.48095703125	373.9836730957032	1117.396362304688	-2471.173095703125	672.2130737304689	843.549011230469	-2440.772705078125	658.1688232421876	848.4757080078127	-2499.975341796875	660.8198242187501	771.233093261719	-2483.767822265625	634.9866333007814	774.6411132812502	-2536.3837890625	603.5184326171876	322.3819580078126	-2506.661376953125	614.2210083007814	319.7826232910157	-2567.404052734375	599.4371337890626	270.5633850097657	-2534.2783203125	600.0513916015626	270.8934631347657	-2594.668701171875	525.6171875000001	116.8400039672852	-2519.385009765625	486.2550354003907	93.71463775634767	-2540.703125	544.6016845703126	71.78579711914064	-2529.17431640625	493.4472961425782	123.2664871215821	-2606.650390625	581.6398315429689	83.21399688720705	-2580.931396484375	521.0723876953126	144.1220703125	-2654.20263671875	527.0889282226564	132.7146759033203	-2689.5087890625	578.5788574218751	138.7492065429688	-2686.931884765625	591.5071411132814	61.8926239013672	-2628.23583984375	522.0916748046876	109.92626953125	-2746.82568359375	578.9896850585939	109.7607574462891	-2749.53173828125	619.5909423828126	57.6676368713379	-2703.485595703125	579.8076171875001	118.8098068237305	-2804.632568359375	299.7853088378907	854.7980957031252	-2289.368896484375	313.6969604492188	822.284118652344	-2338.903076171875	309.6485595703126	770.241638183594	-2275.755859375	337.4200439453126	740.6246337890626	-2321.36474609375	326.4507446289063	470.5229492187501	-1933.711791992188	321.4196777343751	421.8708496093751	-1956.392333984375	327.4752807617188	420.6937561035157	-1906.671020507813	338.1705322265626	371.5252990722657	-1932.6455078125	384.9308166503907	372.3092651367188	-1773.813598632813	361.4963684082032	351.1758728027344	-1737.694702148438	419.4280700683595	353.2862854003907	-1746.80712890625	433.7137145996095	163.7754364013672	-1860.832641601563	328.8223571777344	171.7097625732422	-1801.629638671875	
192	0.7958333333333333	534.5043945312501	1196.162109375	-2280.34912109375	422.464324951172	1194.675903320313	-2290.915771484375	609.1411743164064	1132.782104492188	-2471.636962890625	374.6002197265626	1116.558837890625	-2484.33056640625	673.5755004882814	840.742614746094	-2452.055419921875	658.6821289062501	845.1316528320315	-2511.08154296875	661.8450927734376	768.1209106445315	-2494.326416015625	635.2241821289064	770.9462890625002	-2546.58056640625	603.8037719726564	319.9636535644532	-2523.9775390625	614.6648559570314	318.5856323242188	-2584.7333984375	599.9152832031251	268.7815551757813	-2552.653564453125	600.5623168945314	270.3181457519532	-2613.000244140625	526.7691040039064	114.0157699584961	-2541.01611328125	486.947235107422	91.30175781250001	-2562.66259765625	545.8142700195314	69.22615814208986	-2552.212890625	493.9672851562501	122.757194519043	-2627.78564453125	582.4947509765626	82.05661773681642	-2603.884765625	521.3877563476564	144.7952270507813	-2675.20068359375	526.8374633789064	134.1641998291016	-2710.511962890625	578.9459228515626	140.4689483642578	-2708.30517578125	592.0784301757814	61.92639160156251	-2651.7939453125	521.8383178710939	113.0664672851563	-2768.573974609375	578.6563720703126	113.0389709472657	-2771.66357421875	619.5730590820314	59.91150283813478	-2727.364501953125	579.1822509765626	123.7099609375	-2826.369140625	300.2689819335938	853.4177856445315	-2303.16552734375	314.0957946777344	821.0444335937502	-2352.778076171875	309.8201293945313	768.601989746094	-2289.65625	337.3822021484376	739.0788574218751	-2335.479736328125	326.9631347656251	474.9852294921876	-1943.733154296875	320.8573303222657	425.9798889160157	-1965.262939453125	327.6148986816407	425.7305297851564	-1915.571899414063	337.1923828125001	375.8828430175782	-1940.706176757813	385.3638916015626	379.1687927246094	-1782.403198242188	362.3437805175782	358.7431335449219	-1745.6328125	420.1593017578126	360.4208984375001	-1755.5380859375	432.0399780273439	169.0883026123047	-1866.644897460938	327.9953308105469	178.3597717285157	-1806.20068359375	
193	0.8	535.6760253906251	1194.460571289063	-2293.53466796875	423.470672607422	1193.265502929688	-2303.970947265625	609.8988647460939	1130.484985351563	-2484.69921875	375.2841186523438	1115.43994140625	-2497.42431640625	675.7617797851564	837.710632324219	-2463.602294921875	659.3558959960939	841.7383422851565	-2522.32080078125	662.9577026367189	764.9683837890626	-2505.020751953125	635.5374145507814	767.3659667968751	-2556.902587890625	604.1093139648439	317.5931091308594	-2540.9658203125	615.0944213867189	317.3526306152344	-2601.69873046875	600.3956298828126	266.9783630371094	-2570.55322265625	601.1455078125001	269.5876770019532	-2630.84375	528.0573730468751	111.3378829956055	-2561.854248046875	488.2171020507814	88.8590545654297	-2583.636962890625	547.3233642578126	66.7537078857422	-2574.365234375	494.5587768554689	121.6908798217774	-2648.434326171875	583.3901977539064	80.86224365234376	-2625.962158203125	521.6143798828126	145.5538940429688	-2695.61865234375	526.6680908203126	135.4541473388672	-2730.721435546875	578.9649047851564	142.0171203613282	-2728.826171875	592.6664428710939	62.01990127563478	-2674.443603515625	521.1450195312501	115.8825378417969	-2789.212646484375	578.1403198242189	116.2328872680664	-2792.87744140625	619.5232543945314	62.11584854125978	-2750.257568359375	577.9770507812501	128.4598236083985	-2847.140380859375	300.6828002929688	851.8413696289065	-2316.884765625	314.3294067382813	819.6110839843752	-2366.65576171875	309.6510009765626	767.1390991210939	-2303.9638671875	337.1132202148438	737.4320678710939	-2349.7119140625	327.5445861816407	479.2288208007814	-1954.071166992188	320.3462219238282	429.9939575195314	-1974.483520507813	327.7566833496094	430.6299133300782	-1924.874389648438	336.1406250000001	380.1847229003907	-1949.109741210938	385.933807373047	386.0048828125001	-1791.476684570313	363.2401123046876	366.3295593261719	-1753.995361328125	420.9396057128907	367.5335388183594	-1764.708374023438	430.2721557617189	174.214340209961	-1872.578491210938	327.0756835937501	185.1784820556641	-1810.930053710938	
194	0.8041666666666667	536.8139648437501	1192.417602539063	-2306.67138671875	424.5257263183595	1191.572509765625	-2316.935546875	610.6248779296876	1128.00341796875	-2497.735107421875	375.8960876464844	1114.169067382813	-2510.505615234375	677.3399658203126	834.9124755859377	-2475.12158203125	660.0633544921876	838.5706787109377	-2533.62353515625	664.0355224609376	761.9044799804689	-2516.087158203125	636.0630493164064	764.0224609375001	-2567.6201171875	604.4203491210939	315.1958007812501	-2557.49755859375	615.6213378906251	316.0009155273438	-2618.26611328125	600.8445434570314	265.0633239746094	-2587.921875	601.6539916992189	268.6577758789063	-2648.131591796875	529.5120239257814	108.6984024047852	-2581.78955078125	489.645965576172	86.32061767578126	-2603.6220703125	548.9811401367189	64.34310913085939	-2595.576416015625	495.1632690429689	120.7342681884766	-2667.670166015625	584.5189819335939	79.88697814941408	-2647.190185546875	521.7199707031251	145.7291259765625	-2714.74462890625	526.5087890625001	136.5150604248047	-2750.028076171875	578.7153320312501	143.176498413086	-2748.49560546875	593.4555053710939	62.2042922973633	-2696.1875	520.3915405273439	118.2731170654297	-2808.898193359375	577.9450683593751	119.6243591308594	-2812.786376953125	619.3869018554689	64.28907775878908	-2772.18701171875	576.1257324218751	132.4312286376953	-2867.04345703125	301.0120239257813	850.0936279296877	-2330.545166015625	314.3465270996094	818.0728149414065	-2380.5185546875	309.5835571289063	765.1276855468751	-2317.839599609375	336.5872192382813	735.5521240234376	-2363.947998046875	328.1536560058594	483.3706359863282	-1964.787841796875	319.8713684082032	433.8569335937501	-1983.998291015625	327.8917236328126	435.4141845703126	-1934.609008789063	335.2533569335938	384.270721435547	-1957.835083007813	386.5399780273439	392.7713012695314	-1800.939331054688	364.2323608398438	373.9516906738282	-1762.824096679688	421.7445068359376	374.6022949218751	-1774.3291015625	428.401336669922	179.286117553711	-1878.730590820313	326.1124877929688	192.0205688476563	-1815.846557617188	
